<?xml version="1.0" encoding="UTF-8" standalone="no"?>
<!-- Created with Inkscape (http://www.inkscape.org/) -->

<svg
   width="54.239582mm"
   height="76.067711mm"
   viewBox="0 0 54.239582 76.067711"
   version="1.1"
   id="svg1"
   xmlns="http://www.w3.org/2000/svg"
   xmlns:svg="http://www.w3.org/2000/svg">
  <defs
     id="defs1" />
  <g
     id="layer1"
     transform="translate(-57.81146,-86.121877)">
    <rect
       style="fill:#b3b3b3;fill-opacity:1;stroke-width:0.264583"
       id="rect3"
       width="54.239582"
       height="37.173958"
       x="57.811459"
       y="86.121872"
       rx="17.200001" />
    <ellipse
       style="fill:#000000;stroke-width:0.264583"
       id="path1"
       cx="74.630272"
       cy="103.91348"
       rx="6.7230358"
       ry="7.5139813" />
    <ellipse
       style="fill:#000000;stroke-width:0.264583"
       id="path1-7"
       cx="93.568054"
       cy="103.75124"
       rx="6.7230358"
       ry="7.5139813" />
    <g
       id="g16"
       style="fill:#000000;fill-opacity:1">
      <path
         id="path21"
         style="fill:#e9e9ff;fill-rule:evenodd;stroke:none;stroke-linejoin:round"
         d="m 143.23395,213.5213 21.36826,-5.27826 v 37.74791 l -21.36826,-2.27489 z"
         points="164.60221,208.24304 164.60221,245.99095 143.23395,243.71606 143.23395,213.5213 " />
      <path
         id="path16"
         style="fill:#353564;fill-rule:evenodd;stroke:none;stroke-linejoin:round"
         d="m 123.69271,210.21146 v 34.93112 l 19.54124,-1.42652 V 213.5213 Z"
         points="123.69271,245.14258 143.23395,243.71606 143.23395,213.5213 123.69271,210.21146 " />
      <path
         id="path20"
         style="fill:#afafde;fill-rule:evenodd;stroke:none;stroke-linejoin:round"
         d="m 123.69271,245.14258 19.84375,3.16888 21.06575,-2.32051 -21.36826,-2.27489 z"
         points="143.53646,248.31146 164.60221,245.99095 143.23395,243.71606 123.69271,245.14258 " />
      <path
         id="path17"
         style="fill:#4d4d9f;fill-rule:evenodd;stroke:none;stroke-linejoin:round"
         d="m 123.69271,210.21146 19.84375,-7.35253 21.06575,5.38411 -21.36826,5.27826 z"
         points="143.53646,202.85893 164.60221,208.24304 143.23395,213.5213 123.69271,210.21146 " />
      <path
         id="path19"
         style="fill:#d7d7ff;fill-rule:evenodd;stroke:none;stroke-linejoin:round"
         d="m 143.53646,202.85893 v 45.45253 l 21.06575,-2.32051 v -37.74791 z"
         points="143.53646,248.31146 164.60221,245.99095 164.60221,208.24304 143.53646,202.85893 " />
      <path
         id="path18"
         style="fill:#8686bf;fill-rule:evenodd;stroke:none;stroke-linejoin:round"
         d="m 123.69271,210.21146 19.84375,-7.35253 v 45.45253 l -19.84375,-3.16888 z"
         points="143.53646,202.85893 143.53646,248.31146 123.69271,245.14258 123.69271,210.21146 " />
    </g>
  </g>
</svg>
